<?xml version="1.0" encoding="UTF-8"?>
<svg id="Layer_1" xmlns="http://www.w3.org/2000/svg" version="1.1" viewBox="0 0 23.25 24">
  <!-- Generator: Adobe Illustrator 30.0.0, SVG Export Plug-In . SVG Version: 2.1.1 Build 123)  -->
  <defs>
    <style>
      .st0 {
        fill: #006ac6;
      }

      .st1 {
        fill: #d6d5d5;
      }

      .st2 {
        fill: #fff;
      }
    </style>
  </defs>
  <path class="st1" d="M23.25,0H0v24h23.25V0Z"/>
  <path class="st2" d="M23.25.75H.75v22.5h22.5V.75Z"/>
  <g>
    <path class="st0" d="M7.29,7.6c-.21-.34-.34-.55-.57-1.01-.22-.42-.44-.86-.56-1.32-.08-.32-.14-.66-.16-.98,0-.16-.02-.39,0-.59,0-.05,0-.12.07-.11l-.05-.04c.05-.24.09-.48.18-.69.28-.77,1.02-1.52,1.91-1.3,0,0,.17.05.18.06.66.27,1.07,1.01.8,1.7-.06.17-.2.42-.39.39,0-.13-.24-.41-.35-.45-.24-.07-.53.06-.7.23-1.07,1.04-.13,3.5.54,4.56.07.1.26.4.35.48.02,0,.04.02.05,0-.03-.03-.04-.06-.04-.1-.16-.66-.26-1.41.16-2,.26-.36.62-.52,1.07-.48s.84.53.8.95c-.02.27-.22.06-.35.04-.93-.11-1.09,1.39-1.01,2.02.02.18.17.57.13.68-.02.07-.12.13-.2.13-.06,0-.34-.14-.45-.18-.52-.17-1.26-.23-1.74.06-.28.19-.47.58-.27.88.05.07.27.26.04.31-.21.05-.6-.2-.73-.34-.78-.91.16-2.08,1.22-1.92l.73.2c-.6-.6-1.37-1.16-2.17-1.46-.68-.25-1.78-.39-2.26.3-.19.27-.24.74.07.94.17.1.44.06.21.34-.45.53-1.44.46-1.9-.03-.83-.87-.12-2.24.8-2.7,1.09-.55,2.2-.23,3.2.32l.38.24c.7.59.69.55,1.03.81v.02Z"/>
    <path class="st0" d="M8.62,15.32s-.04.02-.05.03c-.62.73-1.03,1.64-1.26,2.55-.21.77-.31,1.95.3,2.56.24.23.68.39.94.08.1-.12.08-.4.29-.25.21.16.3.63.29.86-.02.55-.44,1.11-.97,1.23-1.3.31-2.12-1.01-2.19-2.13,0-.06-.02-.1.05-.12l-.05-.03c-.05-.9.3-1.74.65-2.55,0-.04.22-.5.58-1.04-.45.37-.55.48-1.02.78-.82.47-1.56.88-2.56.77s-2.08-.96-2.09-2.04c0-.94.92-1.57,1.81-1.25.18.06.66.3.53.54-.67.1-.6.91-.14,1.25.68.53,1.79.23,2.5-.1.75-.36,1.39-.92,1.95-1.54-.1,0-.22.05-.32.06-.6.05-1.37-.24-1.41-.94,0-.13.06-.56.22-.56.13.02.14.21.2.3.27.55,1.13.64,1.67.54.17-.03.55-.19.67-.14.05.02.09.05.1.11.02.12-.11.53-.13.68-.06.5,0,1.1.34,1.49.09.11.53.36.29.48-.21.11-.63-.08-.8-.22-.39-.3-.53-.81-.47-1.29,0-.04.06-.11.05-.13,0,0,.03,0,.03,0Z"/>
    <path class="st0" d="M15.45,8.54s-.06.04,0,.03c.89-1.01,1.68-2.99,1.35-4.33-.11-.46-.46-1.09-1.02-1.03-.09,0-.21.05-.26.12-.14.16-.13.56-.39.22-.31-.39-.28-1.06-.02-1.47.39-.62,1.29-.76,1.92-.37.91.56,1.12,1.99.97,2.95-.11.67-.31,1.13-.61,1.75-.23.49-.37.66-.77,1.32.42-.47.61-.61,1.15-1.01l.84-.47c.19-.06.35-.17.54-.22.37-.12.89-.19,1.31-.13.84.1,1.61.63,1.92,1.43.45,1.18-.57,2.32-1.79,1.81-.14-.06-.46-.22-.46-.38,0-.19.24-.12.38-.27.41-.45-.05-1.06-.49-1.24-1.1-.49-2.63.39-3.45,1.12-.22.2-.4.45-.63.65-.03.03-.11.03-.06.08.51-.1,1.01-.09,1.37.32.22.25.35.67.19.99-.17.29-.27-.13-.34-.24-.39-.62-1.31-.6-1.94-.45-.13.03-.3.18-.42.02-.1-.12.02-.35.04-.5.1-.63.09-1.32-.34-1.82-.09-.1-.32-.22-.25-.36.21-.16.63,0,.8.17.19.17.47.62.47.86v.45h0l-.02.02Z"/>
    <path class="st0" d="M12.58,4.04c.06,0,.04-.02.06-.05.22-.37.46-.7.85-.92.24-.13.81-.32.88.09.13.69-.72,1.07-1.12,1.45s-.75,1.03-.89,1.57c-.05.21-.05.44-.12.62-.1.28-.32.31-.44.02-.09-.24-.08-.58-.17-.85-.14-.45-.54-1.06-.88-1.38-.36-.34-1.05-.66-1.11-1.22-.05-.53.45-.53.81-.36.49.22.72.63,1.02,1.05-.16-.52-.32-.97-.28-1.53.05-.77.79-1.66,1.4-.73.48.73.19,1.5-.02,2.26,0,0,0,0,0,0,0,0,0,0,0,0Z"/>
    <path class="st0" d="M12.1,16.93c.2.17.2.69.25.94.1.42.48,1.04.77,1.36.38.41,1.27.83,1.23,1.47-.02.32-.19.36-.48.31-.49-.09-.92-.56-1.19-.94-.04-.06-.05-.19-.16-.17.21.53.41,1.22.26,1.79-.06.24-.32.67-.55.78-.41.22-.75-.19-.91-.53-.32-.67-.05-1.34.13-2.01-.05,0-.05.02-.07.05-.25.37-.34.6-.76.86-.34.22-.98.39-.97-.22,0-.61.67-.88,1.06-1.21.45-.39.86-1.1.98-1.68.04-.22.02-.67.22-.8.05-.03.12-.05.18,0h0Z"/>
    <path class="st0" d="M20.99,10.02c.34.32-.05.96-.35,1.17l-.39.28.59-.17c.11.03.23-.06.35-.07.39-.04.86.1,1.17.34.55.42.11.76-.35.94-.61.24-1.11.08-1.71-.08l.51.42c.21.23.37.47.3.8-.12.54-.67.37-.98.08-.47-.47-.64-.87-1.27-1.21-.6-.33-.88-.22-1.48-.32-.13-.02-.29-.06-.3-.22,0-.31.47-.25.65-.27.69-.06,1.16-.23,1.68-.7.27-.25.66-.89.94-1.03.2-.09.49-.12.65.04h0,0Z"/>
    <path class="st0" d="M3.87,10.12c.38.29.62.81,1.09,1.13.62.45.93.39,1.65.47.14,0,.39.09.38.27-.02.31-.75.22-.97.25-.52.07-1.09.37-1.45.74-.28.28-.63.91-.98,1.03-.05.02-.08.03-.07-.04h-.02c0,.1-.23.05-.29.02-.12-.05-.23-.22-.25-.34-.08-.53.52-.94.87-1.21-.5.14-.94.31-1.47.21-.27-.06-.94-.37-.9-.7.03-.31.76-.65,1.04-.67.49-.05.88.13,1.34.23l-.36-.26c-.28-.27-.63-.63-.46-1.06.17-.39.62-.26.88-.05h0l-.02-.02Z"/>
    <path class="st0" d="M15.66,12.31c-.64.76-1.62.66-2.37.12-.22-.16-.42-.36-.26-.64s.62-.55.92-.65c.62-.21,1.18-.06,1.66.37.32.3.35.44.06.78h0,0Z"/>
    <path class="st0" d="M10.8,11.54c.08.07.26.26.28.36.03.19-.2.4-.32.51-.44.34-1.17.57-1.72.35-.25-.1-.83-.5-.86-.78-.03-.3.55-.69.8-.81.59-.26,1.36-.04,1.82.36h0Z"/>
    <path class="st0" d="M10.8,9.48c.36.33.6.92.67,1.41.08.55-.4.41-.73.28-.73-.29-1.16-.92-1.09-1.73.03-.25.07-.34.33-.32.28.02.6.18.81.36h0Z"/>
    <path class="st0" d="M11.74,8.37c.27-.27.41-.22.65.07.45.56.29,1.69-.11,2.24-.16.21-.26.32-.46.11-.51-.57-.65-1.85-.08-2.42Z"/>
    <path class="st0" d="M14.04,13.27c.27.33.45.97.29,1.38-.07.21-.36.13-.54.08-.57-.18-.94-.66-1.12-1.2-.1-.3-.31-.93.22-.88.38.04.9.33,1.14.62h0,0Z"/>
    <path class="st0" d="M12.18,13.09c.61.57.72,2,0,2.54-.22.17-.37,0-.51-.19-.44-.57-.32-1.54,0-2.12.12-.22.25-.47.49-.24h0Z"/>
    <path class="st0" d="M13.91,10.78c-.22.21-.51.37-.79.46-.38.11-.59.07-.55-.38.05-.63.5-1.38,1.1-1.61.2-.07.57-.2.66.06.19.5-.05,1.12-.41,1.48Z"/>
    <path class="st0" d="M10.88,14.3c-.23.24-.6.45-.93.48-.27.03-.31-.12-.33-.36-.09-.84.54-1.49,1.3-1.7.59-.18.59.12.48.59-.08.35-.25.74-.51,1.01h0Z"/>
    <path class="st0" d="M11.87,11.26c.7-.12,1.14.73.66,1.22-.52.53-1.41-.03-1.18-.75.07-.22.3-.44.53-.48h0Z"/>
    <path class="st0" d="M20.15,15.08c-.2.26.09.2.22.27.44.26.28.93-.08,1.19-1.16.83-3.22-.35-4.03-1.25-.02-.02-.09-.16-.09-.16h0c.3.11.67.19,1.01.13,1.01-.16,1.39-1.39.55-2.01-.17-.12-.47-.29-.65-.13-.05.12.09.16.14.22.19.25.1.63-.12.83-.44.39-1.22.31-1.75.14-.18-.05-.49-.28-.6-.05-.05.11.07.4.09.54.08.51.09,1.13-.14,1.6-.21.41-.63.68-1.09.48-.04-.02,0-.06-.06-.05-.18.07-.03.53.04.65.25.45.84.59,1.31.38.86-.38.86-1.69.59-2.46h.05c.34.49.67.99.9,1.55.37.88.74,2.34.21,3.21-.21.32-.61.7-1.02.5-.18-.09-.23-.39-.29-.41-.14-.04-.32.33-.35.45-.35,1.13.81,2.13,1.89,1.63,1.18-.57,1.36-2.34,1.06-3.47h0c-.2-.67-.63-1.52-.85-1.95-.03-.08-.07-.17-.13-.25.25.23.86.6.88.61.69.36,1.24.75,2.07.8,1.33.09,2.7-.78,2.57-2.24-.09-1.09-1.66-1.59-2.32-.74h0-.03Z"/>
    <path class="st0" d="M6.28.91c.1.11-.14.16-.22.17-1.78.16-3.79.98-4.53,2.74-.22.51-.38,1.24-.44,1.8,0,.11,0,.67-.08.68-.25-.02-.19-.12-.18-.29,0-.44-.02-.87-.02-1.31-.02-1.17,0-2.36-.02-3.52,0-.05-.02-.32.02-.34.29-.02.58,0,.87,0,1.35-.03,2.74,0,4.08,0,.16,0,.39-.07.52.07h0,0Z"/>
    <path class="st0" d="M1.04,17.65c.09.08.05.56.07.69.08,1.12.47,2.37,1.31,3.14.84.77,1.77,1.12,2.88,1.35.31.07.61.11.94.12.06.1.04.19-.08.2-.52.05-1.18,0-1.71,0-1.15,0-2.31,0-3.46.03-.22,0-.16-.21-.17-.36-.04-1.2,0-2.46.02-3.65,0-.42-.04-.9.02-1.31,0-.08.06-.3.19-.21h0Z"/>
    <path class="st0" d="M23.16.84c0,1.08.04,2.16.02,3.24,0,.59-.05,1.19-.06,1.78,0,.16.09.4-.12.48-.04,0-.09-.17-.09-.22-.11-.75-.12-1.51-.4-2.23-.67-1.71-2.46-2.55-4.21-2.81-.12-.02-.48-.02-.55-.05-.09-.05,0-.21.1-.2l5.3-.02h0v.02Z"/>
    <path class="st0" d="M17.7,22.96c.22-.09.48-.06.7-.09.72-.09,1.63-.35,2.25-.73,1.47-.9,1.97-1.94,2.21-3.62.04-.24.02-.58.07-.8.04-.18.2-.05.21.08.02.17,0,.38,0,.56.04,1.45.05,2.93.03,4.4,0,.13.04.28-.03.4h-.22c-1.54-.04-3.12-.04-4.68-.02-.16-.06-.57.07-.54-.2h0v.02Z"/>
  </g>
</svg>