<?xml version="1.0" encoding="UTF-8"?>
<svg id="Layer_1" xmlns="http://www.w3.org/2000/svg" version="1.1" viewBox="0 0 170.54 29.89">
  <!-- Generator: Adobe Illustrator 30.0.0, SVG Export Plug-In . SVG Version: 2.1.1 Build 123)  -->
  <defs>
    <style>
      .st0 {
        fill: #006ac6;
      }
    </style>
  </defs>
  <path class="st0" d="M17.86,17.18H7.21v6.87h11.89v5.37H.64V.47h17.86v5.37H7.21v6.01h10.65v5.32h0Z"/>
  <path class="st0" d="M38.82,29.41l-2.62-5.24c-1.07-2.02-1.76-3.52-2.58-5.2h-.09c-.6,1.67-1.33,3.18-2.23,5.2l-2.4,5.24h-7.47l8.37-14.64L21.73.47h7.51l2.53,5.28c.86,1.76,1.5,3.18,2.19,4.81h.09c.69-1.85,1.25-3.13,1.98-4.81l2.45-5.28h7.47l-8.16,14.13,8.59,14.81h-7.56Z"/>
  <path class="st0" d="M49.9.86c2.02-.34,4.85-.6,8.85-.6s6.91.77,8.85,2.32c1.85,1.46,3.09,3.86,3.09,6.7s-.94,5.24-2.66,6.87c-2.23,2.1-5.54,3.05-9.4,3.05-.86,0-1.63-.04-2.23-.13v10.35h-6.48V.86h-.02ZM56.39,14c.56.13,1.24.17,2.19.17,3.48,0,5.62-1.76,5.62-4.72,0-2.66-1.85-4.25-5.11-4.25-1.33,0-2.23.13-2.7.26v8.55h0Z"/>
  <path class="st0" d="M74.85.47h6.57v23.45h11.51v5.5h-18.08V.47Z"/>
  <path class="st0" d="M125.96.86c2.1-.34,5.24-.6,8.72-.6,4.29,0,7.3.64,9.36,2.28,1.72,1.37,2.66,3.39,2.66,6.05,0,3.69-2.62,6.23-5.11,7.13v.13c2.02.82,3.13,2.75,3.86,5.41.9,3.26,1.8,7.04,2.36,8.16h-6.7c-.47-.82-1.16-3.18-2.02-6.74-.77-3.61-2.02-4.59-4.68-4.64h-1.98v11.38h-6.48V.86h0ZM132.45,13.31h2.58c3.26,0,5.2-1.63,5.2-4.16,0-2.66-1.8-3.99-4.81-4.04-1.59,0-2.49.13-2.96.21v7.99h0Z"/>
  <path class="st0" d="M168.65,17.18h-10.65v6.87h11.89v5.37h-18.46V.47h17.86v5.37h-11.29v6.01h10.65v5.32h0Z"/>
  <g>
    <polygon class="st0" points="104.94 16.95 113.01 22.55 110.58 12.95 104.94 16.95"/>
    <path class="st0" d="M107.92,0c-8.55,0-14.08,6.48-14.08,15.16s5.02,14.73,13.61,14.73,14.21-5.75,14.21-15.24C121.66,6.66,116.81,0,107.92,0h0ZM114.8,24.58c-.3.42-.89.51-1.31.21l-9.37-6.78c-.11-.07-.21-.17-.27-.29-.09-.1-.16-.22-.19-.35l-3.09-11.24c-.11-.39.04-.8.37-1.02.15-.12.34-.18.54-.18s.39.07.54.2l9.37,6.78c.11.07.21.17.27.29.09.1.16.22.19.35l3.09,11.24c.08.27.03.57-.13.8h-.01Z"/>
  </g>
</svg>