<?xml version="1.0" encoding="UTF-8"?>
<svg id="Layer_1" xmlns="http://www.w3.org/2000/svg" version="1.1" viewBox="0 0 237.14 29.89">
  <!-- Generator: Adobe Illustrator 30.0.0, SVG Export Plug-In . SVG Version: 2.1.1 Build 123)  -->
  <defs>
    <style>
      .st0 {
        fill: #c70900;
      }
    </style>
  </defs>
  <path class="st0" d="M7.21.47v11.12h10.78V.47h6.53v28.94h-6.53v-12.11H7.21v12.11H.64V.47h6.57Z"/>
  <path class="st0" d="M56.73,14.64c0,9.49-5.75,15.24-14.21,15.24s-13.61-6.48-13.61-14.73C28.91,6.48,34.45,0,42.99,0s13.74,6.66,13.74,14.64h0ZM35.82,15.03c0,5.67,2.66,9.66,7.04,9.66s6.96-4.21,6.96-9.83c0-5.2-2.49-9.66-7-9.66s-7,4.21-7,9.83Z"/>
  <path class="st0" d="M61.03,29.41V.47h7.64l6.01,10.61c1.72,3.05,3.44,6.66,4.72,9.92h.13c-.43-3.82-.56-7.73-.56-12.07V.47h6.01v28.94h-6.87l-6.18-11.16c-1.72-3.09-3.61-6.83-5.02-10.22l-.13.04c.17,3.82.26,7.9.26,12.62v8.72h-6.01Z"/>
  <path class="st0" d="M114.84,28.08c-2.02.69-5.84,1.63-9.66,1.63-5.28,0-9.1-1.33-11.77-3.91-2.66-2.49-4.12-6.27-4.08-10.52.04-9.62,7.04-15.11,16.53-15.11,3.74,0,6.61.73,8.03,1.42l-1.37,5.24c-1.59-.69-3.56-1.25-6.74-1.25-5.45,0-9.58,3.09-9.58,9.36s3.74,9.49,9.1,9.49c1.5,0,2.7-.17,3.22-.43v-6.05h-4.47v-5.11h10.78v15.24h.01Z"/>
  <path class="st0" d="M126.94.47h6.48v12.8h.13c.64-1.12,1.33-2.15,1.97-3.18l6.57-9.62h8.03l-9.58,12.32,10.09,16.62h-7.64l-7.08-12.5-2.49,3.05v9.45h-6.48s0-28.94,0-28.94Z"/>
  <path class="st0" d="M178.39,14.64c0,9.49-5.75,15.24-14.21,15.24s-13.61-6.48-13.61-14.73C150.57,6.48,156.11,0,164.65,0s13.74,6.66,13.74,14.64h0ZM157.47,15.03c0,5.67,2.66,9.66,7.04,9.66s6.96-4.21,6.96-9.83c0-5.2-2.49-9.66-7-9.66s-7,4.21-7,9.83Z"/>
  <path class="st0" d="M182.68,29.41V.47h7.64l6.01,10.61c1.72,3.05,3.44,6.66,4.72,9.92h.13c-.43-3.82-.56-7.73-.56-12.07V.47h6.01v28.94h-6.87l-6.18-11.16c-1.72-3.09-3.61-6.83-5.02-10.22l-.13.04c.17,3.82.26,7.9.26,12.62v8.72h-6.01Z"/>
  <path class="st0" d="M236.49,28.08c-2.02.69-5.84,1.63-9.66,1.63-5.28,0-9.1-1.33-11.77-3.91-2.66-2.49-4.12-6.27-4.08-10.52.04-9.62,7.04-15.11,16.53-15.11,3.74,0,6.61.73,8.03,1.42l-1.37,5.24c-1.59-.69-3.56-1.25-6.74-1.25-5.45,0-9.58,3.09-9.58,9.36s3.74,9.49,9.1,9.49c1.5,0,2.7-.17,3.22-.43v-6.05h-4.47v-5.11h10.78v15.24h.01Z"/>
</svg>