<?xml version="1.0" encoding="UTF-8"?>
<svg id="Layer_1" xmlns="http://www.w3.org/2000/svg" version="1.1" viewBox="0 0 140.62 29.89">
  <!-- Generator: Adobe Illustrator 30.0.0, SVG Export Plug-In . SVG Version: 2.1.1 Build 123)  -->
  <defs>
    <style>
      .st0 {
        fill: #00966c;
      }
    </style>
  </defs>
  <path class="st0" d="M25.11,18.34c-.13-3.48-.26-7.69-.26-11.9h-.13c-.9,3.69-2.1,7.82-3.22,11.21l-3.52,11.29h-5.11l-3.09-11.21c-.94-3.39-1.93-7.51-2.62-11.29h-.09c-.17,3.91-.3,8.37-.51,11.98l-.52,10.99H0L1.85.47h8.71l2.83,9.66c.9,3.35,1.8,6.96,2.45,10.35h.13c.82-3.35,1.8-7.17,2.75-10.39L21.8.47h8.54l1.59,28.94h-6.4l-.43-11.08Z"/>
  <path class="st0" d="M43.57,21.99l-2.06,7.43h-6.78L43.57.47h8.58l8.97,28.94h-7.04l-2.23-7.43h-8.28ZM50.91,17.09l-1.8-6.14c-.52-1.72-1.03-3.86-1.46-5.58h-.09c-.43,1.72-.86,3.91-1.33,5.58l-1.72,6.14h6.4Z"/>
  <path class="st0" d="M85.17,28.6c-1.2.6-3.91,1.24-7.43,1.24-10,0-15.15-6.23-15.15-14.47,0-9.88,7.04-15.37,15.8-15.37,3.39,0,5.97.69,7.13,1.29l-1.33,5.2c-1.33-.56-3.18-1.07-5.49-1.07-5.19,0-9.23,3.14-9.23,9.58,0,5.8,3.43,9.45,9.27,9.45,1.97,0,4.16-.43,5.45-.94l.99,5.11Z"/>
  <path class="st0" d="M96.63,21.99l-2.06,7.43h-6.78L96.63.47h8.58l8.97,28.94h-7.04l-2.23-7.43h-8.28ZM103.97,17.09l-1.8-6.14c-.52-1.72-1.03-3.86-1.46-5.58h-.09c-.43,1.72-.86,3.91-1.33,5.58l-1.72,6.14h6.4Z"/>
  <path class="st0" d="M123.08.47v16.66c0,4.98,1.89,7.51,5.24,7.51s5.32-2.4,5.32-7.51V.47h6.52v16.23c0,8.93-4.51,13.18-12.06,13.18s-11.59-4.04-11.59-13.27V.47h6.57Z"/>
</svg>